<svg width="107" height="25" viewBox="0 0 107 25" fill="none" xmlns="http://www.w3.org/2000/svg">
<path d="M0.896307 2.18182H6.58523L12.5938 16.8409H12.8494L18.858 2.18182H24.5469V24H20.0724V9.79901H19.8913L14.245 23.8935H11.1982L5.55185 9.74574H5.37074V24H0.896307V2.18182ZM28.2623 24V7.63636H32.8006V24H28.2623ZM30.5421 5.52699C29.8674 5.52699 29.2885 5.30327 28.8056 4.85582C28.3297 4.40128 28.0918 3.85795 28.0918 3.22585C28.0918 2.60085 28.3297 2.06463 28.8056 1.61719C29.2885 1.16264 29.8674 0.935368 30.5421 0.935368C31.2168 0.935368 31.7921 1.16264 32.2679 1.61719C32.7509 2.06463 32.9924 2.60085 32.9924 3.22585C32.9924 3.85795 32.7509 4.40128 32.2679 4.85582C31.7921 5.30327 31.2168 5.52699 30.5421 5.52699ZM36.4361 24V7.63636H40.8359V10.4915H41.0064C41.3047 9.47585 41.8054 8.70881 42.5085 8.19034C43.2116 7.66477 44.0213 7.40199 44.9375 7.40199C45.1648 7.40199 45.4098 7.41619 45.6726 7.4446C45.9354 7.47301 46.1662 7.51207 46.3651 7.56179V11.5888C46.152 11.5249 45.8572 11.468 45.4808 11.4183C45.1044 11.3686 44.7599 11.3438 44.4474 11.3438C43.7798 11.3438 43.1832 11.4893 42.6577 11.7805C42.1392 12.0646 41.7273 12.4624 41.4219 12.9737C41.1236 13.4851 40.9744 14.0746 40.9744 14.7422V24H36.4361ZM52.9089 24.3089C51.8649 24.3089 50.9345 24.1278 50.1177 23.7656C49.301 23.3963 48.6547 22.853 48.1788 22.1357C47.71 21.4112 47.4757 20.5092 47.4757 19.4297C47.4757 18.5206 47.6426 17.7571 47.9764 17.1392C48.3102 16.5213 48.7647 16.0241 49.34 15.6477C49.9153 15.2713 50.5687 14.9872 51.3002 14.7955C52.0389 14.6037 52.813 14.4688 53.6227 14.3906C54.5744 14.2912 55.3414 14.1989 55.9238 14.1136C56.5062 14.0213 56.9288 13.8864 57.1916 13.7088C57.4544 13.5312 57.5858 13.2685 57.5858 12.9205V12.8565C57.5858 12.1818 57.3727 11.6598 56.9466 11.2905C56.5275 10.9212 55.9309 10.7365 55.1568 10.7365C54.34 10.7365 53.6902 10.9176 53.2072 11.2798C52.7243 11.6349 52.4047 12.0824 52.2484 12.6222L48.051 12.2812C48.264 11.2869 48.6831 10.4276 49.3081 9.70312C49.9331 8.97159 50.7392 8.41051 51.7264 8.01989C52.7207 7.62216 53.8713 7.4233 55.1781 7.4233C56.0872 7.4233 56.9572 7.52983 57.7882 7.7429C58.6262 7.95597 59.3684 8.28622 60.0147 8.73366C60.6681 9.18111 61.1831 9.75639 61.5595 10.4595C61.9359 11.1555 62.1241 11.9901 62.1241 12.9631V24H57.8201V21.7308H57.6923C57.4295 22.2422 57.0779 22.6932 56.6376 23.0838C56.1973 23.4673 55.6681 23.7692 55.0502 23.9893C54.4324 24.2024 53.7186 24.3089 52.9089 24.3089ZM54.2086 21.1768C54.8762 21.1768 55.4657 21.0455 55.9771 20.7827C56.4885 20.5128 56.8897 20.1506 57.1809 19.696C57.4721 19.2415 57.6177 18.7266 57.6177 18.1513V16.4148C57.4757 16.5071 57.2804 16.5923 57.0318 16.6705C56.7903 16.7415 56.5169 16.8089 56.2115 16.8729C55.9061 16.9297 55.6007 16.983 55.2953 17.0327C54.9899 17.0753 54.7129 17.1143 54.4643 17.1499C53.9316 17.228 53.4664 17.3523 53.0687 17.5227C52.671 17.6932 52.362 17.924 52.1419 18.2152C51.9217 18.4993 51.8116 18.8544 51.8116 19.2805C51.8116 19.8984 52.0353 20.3707 52.4828 20.6974C52.9373 21.017 53.5126 21.1768 54.2086 21.1768Z" fill="black"/>
<path d="M73.0385 24.3196C71.3624 24.3196 69.9206 23.9645 68.7132 23.2543C67.513 22.5369 66.5897 21.5426 65.9434 20.2713C65.3042 19 64.9846 17.5369 64.9846 15.8821C64.9846 14.206 65.3077 12.7358 65.954 11.4716C66.6074 10.2003 67.5343 9.20952 68.7346 8.49929C69.9348 7.78196 71.3624 7.4233 73.0172 7.4233C74.4448 7.4233 75.6948 7.68253 76.7672 8.20099C77.8397 8.71946 78.6884 9.44744 79.3134 10.3849C79.9384 11.3224 80.2828 12.4233 80.3468 13.6875H76.0641C75.9434 12.8707 75.6238 12.2138 75.1053 11.7166C74.5939 11.2124 73.9228 10.9602 73.0918 10.9602C72.3887 10.9602 71.7743 11.152 71.2488 11.5355C70.7303 11.9119 70.3255 12.4624 70.0343 13.1868C69.7431 13.9112 69.5975 14.7884 69.5975 15.8182C69.5975 16.8622 69.7395 17.75 70.0236 18.4815C70.3148 19.2131 70.7232 19.7706 71.2488 20.1541C71.7743 20.5376 72.3887 20.7294 73.0918 20.7294C73.6103 20.7294 74.0755 20.6229 74.4874 20.4098C74.9064 20.1967 75.2509 19.8878 75.5208 19.483C75.7978 19.071 75.9789 18.5774 76.0641 18.0021H80.3468C80.2757 19.2521 79.9348 20.353 79.324 21.3047C78.7203 22.2493 77.8858 22.9879 76.8205 23.5206C75.7551 24.0533 74.4945 24.3196 73.0385 24.3196ZM87.7908 2.18182V24H83.2525V2.18182H87.7908ZM98.8837 24.3196C97.2005 24.3196 95.7516 23.9787 94.5371 23.2969C93.3297 22.608 92.3993 21.6349 91.7459 20.3778C91.0925 19.1136 90.7658 17.6186 90.7658 15.8928C90.7658 14.2095 91.0925 12.7322 91.7459 11.4609C92.3993 10.1896 93.3191 9.19886 94.5051 8.48864C95.6983 7.77841 97.0975 7.4233 98.7026 7.4233C99.7821 7.4233 100.787 7.5973 101.718 7.94531C102.655 8.28622 103.472 8.80114 104.168 9.49006C104.871 10.179 105.418 11.0455 105.808 12.0895C106.199 13.1264 106.394 14.3409 106.394 15.733V16.9794H92.5769V14.1669H102.122C102.122 13.5135 101.98 12.9347 101.696 12.4304C101.412 11.9261 101.018 11.532 100.514 11.2479C100.017 10.9567 99.4377 10.8111 98.7772 10.8111C98.0882 10.8111 97.4775 10.9709 96.9448 11.2905C96.4192 11.603 96.0073 12.0256 95.709 12.5582C95.4107 13.0838 95.258 13.6697 95.2509 14.3161V16.9901C95.2509 17.7997 95.4 18.4993 95.6983 19.0888C96.0037 19.6783 96.4334 20.1328 96.9874 20.4524C97.5414 20.772 98.1983 20.9318 98.9583 20.9318C99.4625 20.9318 99.9242 20.8608 100.343 20.7188C100.762 20.5767 101.121 20.3636 101.419 20.0795C101.718 19.7955 101.945 19.4474 102.101 19.0355L106.298 19.3125C106.085 20.321 105.649 21.2017 104.988 21.9545C104.335 22.7003 103.49 23.2827 102.453 23.7017C101.423 24.1136 100.233 24.3196 98.8837 24.3196Z" fill="#313BAC"/>
</svg>
